<svg id="Camada_1" data-name="Camada 1" xmlns="http://www.w3.org/2000/svg" viewBox="0 0 300 300"><defs><style>.cls-1{fill:#d3e2df;}.cls-2{fill:none;stroke:#fff;stroke-miterlimit:10;}</style></defs><title>logosPrancheta 1</title><rect class="cls-1" x="-12.5" y="-10.5" width="319.25" height="319.25"/><path class="cls-2" d="M51.21,14.64,61.36,25.16A4.93,4.93,0,0,0,65.7,26.6l14.41-2.4a4.92,4.92,0,0,1,5.15,7.16l-6.87,12.9a4.92,4.92,0,0,0,0,4.57l6.73,13a4.91,4.91,0,0,1-5.21,7.11l-14.4-2.55a4.91,4.91,0,0,0-4.35,1.39L50.87,78.16a4.92,4.92,0,0,1-8.37-2.77l-2-14.47a4.92,4.92,0,0,0-2.67-3.72L24.74,50.67a4.92,4.92,0,0,1,.05-8.82l13.14-6.39a5,5,0,0,0,2.71-3.69l2.17-14.45A4.92,4.92,0,0,1,51.21,14.64Z"/><path class="cls-2" d="M266.21,207.06l3.94,14.07a4.94,4.94,0,0,0,3.14,3.33l13.83,4.73a4.91,4.91,0,0,1,1.13,8.74L276.08,246a4.92,4.92,0,0,0-2.19,4l-.22,14.61a4.92,4.92,0,0,1-8,3.78l-11.46-9.07a4.91,4.91,0,0,0-4.49-.84l-14,4.3a4.92,4.92,0,0,1-6.05-6.41l5.08-13.7a4.93,4.93,0,0,0-.58-4.54l-8.41-11.95a4.92,4.92,0,0,1,4.22-7.74l14.6.6a4.88,4.88,0,0,0,4.13-2l8.78-11.69A4.92,4.92,0,0,1,266.21,207.06Z"/><path class="cls-2" d="M222.7,50.21l3.94,14.07a4.88,4.88,0,0,0,3.14,3.32l13.83,4.74a4.91,4.91,0,0,1,1.13,8.73l-12.17,8.1a5,5,0,0,0-2.19,4l-.23,14.61a4.91,4.91,0,0,1-8,3.78l-11.46-9.07a4.91,4.91,0,0,0-4.49-.85l-14,4.3a4.91,4.91,0,0,1-6.05-6.4l5.08-13.7a4.93,4.93,0,0,0-.59-4.54l-8.4-12a4.91,4.91,0,0,1,4.22-7.73l14.6.6a4.9,4.9,0,0,0,4.13-2L214,48.58A4.91,4.91,0,0,1,222.7,50.21Z"/><path class="cls-2" d="M56.8,225.08l6.63,13a4.92,4.92,0,0,0,3.74,2.64l14.49,1.92A4.91,4.91,0,0,1,84.49,251L74.15,261.34a4.92,4.92,0,0,0-1.36,4.36l2.66,14.38a4.91,4.91,0,0,1-7.06,5.27l-13-6.64a4.92,4.92,0,0,0-4.57.06l-12.85,7a4.91,4.91,0,0,1-7.19-5.09L33,266.21a4.94,4.94,0,0,0-1.47-4.33L21,251.82a4.92,4.92,0,0,1,2.62-8.42L38,241.11a4.91,4.91,0,0,0,3.67-2.73L48,225.19A4.91,4.91,0,0,1,56.8,225.08Z"/><circle class="cls-2" cx="19.23" cy="215.91" r="4.89"/><circle class="cls-2" cx="21.33" cy="147.48" r="7"/><circle class="cls-2" cx="52.56" cy="130.25" r="5.8"/><circle class="cls-2" cx="21.67" cy="92.08" r="2.45"/><circle class="cls-2" cx="82.42" cy="183.98" r="5.97"/><circle class="cls-2" cx="102.73" cy="268.13" r="4.78"/><circle class="cls-2" cx="152.73" cy="279.57" r="4.27"/><circle class="cls-2" cx="160.49" cy="196.81" r="6.66"/><circle class="cls-2" cx="194.37" cy="265.23" r="4.27"/><circle class="cls-2" cx="260.67" cy="278.29" r="2.99"/><circle class="cls-2" cx="257.8" cy="182.51" r="5.85"/><circle class="cls-2" cx="272.44" cy="134.17" r="6.31"/><circle class="cls-2" cx="109.47" cy="100.47" r="15.27"/><circle class="cls-2" cx="160.49" cy="52.18" r="2.47"/><circle class="cls-2" cx="272.44" cy="22.83" r="5.2"/><circle class="cls-2" cx="145.99" cy="16.17" r="5.72"/><circle class="cls-2" cx="111.43" cy="36.22" r="4.27"/><circle class="cls-2" cx="11.43" cy="13.35" r="2.9"/><circle class="cls-2" cx="131.06" cy="143.69" r="6.31"/><circle class="cls-2" cx="258.7" cy="64.38" r="2.39"/><circle class="cls-2" cx="198.63" cy="164.38" r="5.12"/></svg>