<svg id="Camada_1" data-name="Camada 1" xmlns="http://www.w3.org/2000/svg" viewBox="0 0 20 20"><defs><style>.cls-1{fill:#fff;}</style></defs><title>logosPrancheta 1_1</title><path class="cls-1" d="M13.62,19.25V12.12c.66,0,1.32,0,2,0,.15,0,.39-.13.41-.23.14-.85.23-1.71.34-2.61h-2.8c0-.86,0-1.67.16-2.46.07-.5.56-.61,1-.63h1.71c0-.84,0-1.63,0-2.41a.27.27,0,0,0-.19-.2,7.15,7.15,0,0,0-3.67.22,3.43,3.43,0,0,0-2,3.38c0,.67,0,1.33,0,2.06-.65,0-1.3,0-1.94,0-.4,0-.51.13-.49.51,0,.66,0,1.33,0,2,0,.31.1.41.41.41.65,0,1.3,0,2,0a3.44,3.44,0,0,1,0,.43c0,2.06,0,4.12,0,6.18,0,.41-.12.52-.53.51L2,19.21C1.06,19.2.76,18.89.76,18L.79,2C.79,1,1.07.77,2.05.76H17.94c1,0,1.3.28,1.3,1.3q0,8,0,16c0,.88-.33,1.22-1.2,1.22Z"/></svg>