<svg id="Camada_1" data-name="Camada 1" xmlns="http://www.w3.org/2000/svg" viewBox="0 0 20 20"><defs><style>.cls-1{fill:#fff;}</style></defs><title>logosPrancheta 2</title><path class="cls-1" d="M.83,15.81A7.69,7.69,0,0,0,6.3,14.26a3.89,3.89,0,0,1-3.49-2.64,4.53,4.53,0,0,0,1.56-.06c-.09-.11-.21-.1-.3-.14A3.79,3.79,0,0,1,1.5,8.08c0-.23,0-.31.26-.18a2.86,2.86,0,0,0,1.3.32c0-.11-.08-.12-.13-.16a3.82,3.82,0,0,1-1-4.59c.1-.21.16-.28.35-.06A10.65,10.65,0,0,0,8.87,7.06l.68.08c.21,0,.26,0,.23-.25a3.66,3.66,0,0,1,1.45-3.62,3.76,3.76,0,0,1,4.8.2.55.55,0,0,0,.59.15,8.3,8.3,0,0,0,1.86-.74.14.14,0,0,1,.16,0,3.8,3.8,0,0,1-1.5,1.95,1.84,1.84,0,0,0,.69-.09c.22,0,.44-.12.66-.18l.68-.24A6.2,6.2,0,0,1,17.63,6a.89.89,0,0,0-.34.79A10.7,10.7,0,0,1,12.13,16a10.32,10.32,0,0,1-6.74,1.43A10.36,10.36,0,0,1,1.1,16,.76.76,0,0,1,.83,15.81Z"/></svg>